{
    "asset" : {
        "generator" : "Khronos glTF Blender I/O v1.8.19",
        "version" : "2.0"
    },
    "extensionsUsed" : [
        "KHR_materials_clearcoat"
    ],
    "scene" : 0,
    "scenes" : [
        {
            "name" : "Scene",
            "nodes" : [
                6
            ]
        }
    ],
    "nodes" : [
        {
            "mesh" : 0,
            "name" : "Cube_Material.002_0"
        },
        {
            "mesh" : 1,
            "name" : "Cube_Material.003_0"
        },
        {
            "children" : [
                0,
                1
            ],
            "name" : "Cube",
            "rotation" : [
                -0.7071068286895752,
                0,
                0,
                0.7071068286895752
            ],
            "scale" : [
                100,
                241.59303283691406,
                84.44049835205078
            ],
            "translation" : [
                0,
                124.0300064086914,
                0
            ]
        },
        {
            "children" : [
                2
            ],
            "name" : "RootNode"
        },
        {
            "children" : [
                3
            ],
            "name" : "Object_2"
        },
        {
            "children" : [
                4
            ],
            "name" : "9d395961b2d34a4094d435aec7834f6b.fbx",
            "rotation" : [
                0.7071068286895752,
                0,
                0,
                0.7071068286895752
            ],
            "scale" : [
                0.009999999776482582,
                0.009999999776482582,
                0.009999999776482582
            ]
        },
        {
            "children" : [
                5
            ],
            "name" : "Sketchfab_model",
            "rotation" : [
                -0.7071068286895752,
                0,
                0,
                0.7071068286895752
            ]
        }
    ],
    "animations" : [
        {
            "channels" : [
                {
                    "sampler" : 0,
                    "target" : {
                        "node" : 2,
                        "path" : "translation"
                    }
                },
                {
                    "sampler" : 1,
                    "target" : {
                        "node" : 2,
                        "path" : "rotation"
                    }
                }
            ],
            "name" : "Cube|Cube.001Action",
            "samplers" : [
                {
                    "input" : 8,
                    "interpolation" : "LINEAR",
                    "output" : 9
                },
                {
                    "input" : 8,
                    "interpolation" : "LINEAR",
                    "output" : 10
                }
            ]
        },
        {
            "channels" : [
                {
                    "sampler" : 0,
                    "target" : {
                        "node" : 2,
                        "path" : "translation"
                    }
                },
                {
                    "sampler" : 1,
                    "target" : {
                        "node" : 2,
                        "path" : "rotation"
                    }
                }
            ],
            "name" : "Cube|CubeAction",
            "samplers" : [
                {
                    "input" : 8,
                    "interpolation" : "LINEAR",
                    "output" : 11
                },
                {
                    "input" : 8,
                    "interpolation" : "LINEAR",
                    "output" : 12
                }
            ]
        }
    ],
    "materials" : [
        {
            "doubleSided" : true,
            "extensions" : {
                "KHR_materials_clearcoat" : {
                    "clearcoatFactor" : 1,
                    "clearcoatRoughnessFactor" : 0
                }
            },
            "name" : "Material.002",
            "pbrMetallicRoughness" : {
                "baseColorFactor" : [
                    1,
                    0,
                    0.3980455994606018,
                    1
                ],
                "metallicFactor" : 0,
                "roughnessFactor" : 0.8040408492088318
            }
        },
        {
            "alphaMode" : "BLEND",
            "doubleSided" : true,
            "extensions" : {
                "KHR_materials_clearcoat" : {
                    "clearcoatFactor" : 1,
                    "clearcoatRoughnessFactor" : 0.05333349481225014
                }
            },
            "name" : "Material.003",
            "pbrMetallicRoughness" : {
                "baseColorFactor" : [
                    1,
                    1,
                    1,
                    0.25
                ],
                "metallicFactor" : 0,
                "roughnessFactor" : 0.7763931751251221
            }
        }
    ],
    "meshes" : [
        {
            "name" : "Cube_Material.002_0",
            "primitives" : [
                {
                    "attributes" : {
                        "POSITION" : 0,
                        "NORMAL" : 1,
                        "TEXCOORD_0" : 2
                    },
                    "indices" : 3,
                    "material" : 0
                }
            ]
        },
        {
            "name" : "Cube_Material.003_0",
            "primitives" : [
                {
                    "attributes" : {
                        "POSITION" : 4,
                        "NORMAL" : 5,
                        "TEXCOORD_0" : 6
                    },
                    "indices" : 7,
                    "material" : 1
                }
            ]
        }
    ],
    "accessors" : [
        {
            "bufferView" : 0,
            "componentType" : 5126,
            "count" : 6034,
            "max" : [
                0.8717256188392639,
                0.9063622355461121,
                0.299397349357605
            ],
            "min" : [
                -0.8717256188392639,
                -0.9218012094497681,
                -3.6226019859313965
            ],
            "type" : "VEC3"
        },
        {
            "bufferView" : 1,
            "componentType" : 5126,
            "count" : 6034,
            "type" : "VEC3"
        },
        {
            "bufferView" : 2,
            "componentType" : 5126,
            "count" : 6034,
            "type" : "VEC2"
        },
        {
            "bufferView" : 3,
            "componentType" : 5123,
            "count" : 33792,
            "type" : "SCALAR"
        },
        {
            "bufferView" : 4,
            "componentType" : 5126,
            "count" : 6034,
            "max" : [
                1.0146105289459229,
                1.0691473484039307,
                1.1838749647140503
            ],
            "min" : [
                -1.0146105289459229,
                -1.0691473484039307,
                -4.206429481506348
            ],
            "type" : "VEC3"
        },
        {
            "bufferView" : 5,
            "componentType" : 5126,
            "count" : 6034,
            "type" : "VEC3"
        },
        {
            "bufferView" : 6,
            "componentType" : 5126,
            "count" : 6034,
            "type" : "VEC2"
        },
        {
            "bufferView" : 7,
            "componentType" : 5123,
            "count" : 33792,
            "type" : "SCALAR"
        },
        {
            "bufferView" : 8,
            "componentType" : 5126,
            "count" : 121,
            "max" : [
                5
            ],
            "min" : [
                0
            ],
            "type" : "SCALAR"
        },
        {
            "bufferView" : 9,
            "componentType" : 5126,
            "count" : 121,
            "type" : "VEC3"
        },
        {
            "bufferView" : 10,
            "componentType" : 5126,
            "count" : 121,
            "type" : "VEC4"
        },
        {
            "bufferView" : 11,
            "componentType" : 5126,
            "count" : 121,
            "type" : "VEC3"
        },
        {
            "bufferView" : 12,
            "componentType" : 5126,
            "count" : 121,
            "type" : "VEC4"
        }
    ],
    "bufferViews" : [
        {
            "buffer" : 0,
            "byteLength" : 72408,
            "byteOffset" : 0
        },
        {
            "buffer" : 0,
            "byteLength" : 72408,
            "byteOffset" : 72408
        },
        {
            "buffer" : 0,
            "byteLength" : 48272,
            "byteOffset" : 144816
        },
        {
            "buffer" : 0,
            "byteLength" : 67584,
            "byteOffset" : 193088
        },
        {
            "buffer" : 0,
            "byteLength" : 72408,
            "byteOffset" : 260672
        },
        {
            "buffer" : 0,
            "byteLength" : 72408,
            "byteOffset" : 333080
        },
        {
            "buffer" : 0,
            "byteLength" : 48272,
            "byteOffset" : 405488
        },
        {
            "buffer" : 0,
            "byteLength" : 67584,
            "byteOffset" : 453760
        },
        {
            "buffer" : 0,
            "byteLength" : 484,
            "byteOffset" : 521344
        },
        {
            "buffer" : 0,
            "byteLength" : 1452,
            "byteOffset" : 521828
        },
        {
            "buffer" : 0,
            "byteLength" : 1936,
            "byteOffset" : 523280
        },
        {
            "buffer" : 0,
            "byteLength" : 1452,
            "byteOffset" : 525216
        },
        {
            "buffer" : 0,
            "byteLength" : 1936,
            "byteOffset" : 526668
        }
    ],
    "buffers" : [
        {
            "byteLength" : 528604,
            "uri" : "data:application/octet-stream;base64,"
        }
    ]
}
