{
  "accessors": [
    {
      "bufferView": 2,
      "componentType": 5126,
      "count": 6011,
      "max": [
        1.0146105289459229,
        1.0691473484039307,
        1.1838749647140503
      ],
      "min": [
        -1.0146105289459229,
        -1.0691473484039307,
        -4.206429481506348
      ],
      "type": "VEC3"
    },
    {
      "bufferView": 2,
      "byteOffset": 72132,
      "componentType": 5126,
      "count": 6011,
      "max": [
        0.9998151063919067,
        0.9999393224716187,
        1.0
      ],
      "min": [
        -0.9998151063919067,
        -0.9999393224716187,
        -1.0
      ],
      "type": "VEC3"
    },
    {
      "bufferView": 1,
      "componentType": 5126,
      "count": 6011,
      "max": [
        0.8750001192092896,
        1.0000001192092896
      ],
      "min": [
        0.125,
        0.0
      ],
      "type": "VEC2"
    },
    {
      "bufferView": 0,
      "componentType": 5125,
      "count": 33792,
      "type": "SCALAR"
    },
    {
      "bufferView": 2,
      "byteOffset": 144264,
      "componentType": 5126,
      "count": 6011,
      "max": [
        0.8717256188392639,
        0.9063622355461121,
        0.299397349357605
      ],
      "min": [
        -0.8717256188392639,
        -0.9218012094497681,
        -3.6226019859313965
      ],
      "type": "VEC3"
    },
    {
      "bufferView": 2,
      "byteOffset": 216396,
      "componentType": 5126,
      "count": 6011,
      "max": [
        0.9997788667678833,
        0.9999772310256958,
        0.9932886958122253
      ],
      "min": [
        -0.99979567527771,
        -0.9998894929885864,
        -0.9999999403953552
      ],
      "type": "VEC3"
    },
    {
      "bufferView": 1,
      "byteOffset": 48088,
      "componentType": 5126,
      "count": 6011,
      "max": [
        0.8750001192092896,
        1.0000001192092896
      ],
      "min": [
        0.125,
        0.0
      ],
      "type": "VEC2"
    },
    {
      "bufferView": 0,
      "byteOffset": 135168,
      "componentType": 5125,
      "count": 33792,
      "type": "SCALAR"
    },
    {
      "bufferView": 3,
      "componentType": 5126,
      "count": 239,
      "max": [
        5.0
      ],
      "min": [
        0.0
      ],
      "type": "SCALAR"
    },
    {
      "bufferView": 4,
      "componentType": 5126,
      "count": 239,
      "max": [
        0.0,
        271.6882019042969,
        0.0
      ],
      "min": [
        0.0,
        124.0300064086914,
        0.0
      ],
      "type": "VEC3"
    },
    {
      "bufferView": 3,
      "byteOffset": 956,
      "componentType": 5126,
      "count": 241,
      "max": [
        5.0
      ],
      "min": [
        0.0
      ],
      "type": "SCALAR"
    },
    {
      "bufferView": 5,
      "componentType": 5126,
      "count": 241,
      "max": [
        0.49689197540283203,
        0.707100510597229,
        0.7071005702018738,
        0.7071067690849304
      ],
      "min": [
        -0.7071067690849304,
        -0.49809423089027405,
        -0.4980931282043457,
        -0.49689435958862305
      ],
      "type": "VEC4"
    },
    {
      "bufferView": 3,
      "byteOffset": 1920,
      "componentType": 5126,
      "count": 237,
      "max": [
        5.0
      ],
      "min": [
        0.0
      ],
      "type": "SCALAR"
    },
    {
      "bufferView": 4,
      "byteOffset": 2868,
      "componentType": 5126,
      "count": 237,
      "max": [
        0.0,
        271.6882019042969,
        0.0
      ],
      "min": [
        0.0,
        124.02998352050781,
        0.0
      ],
      "type": "VEC3"
    },
    {
      "bufferView": 3,
      "byteOffset": 2868,
      "componentType": 5126,
      "count": 241,
      "max": [
        5.0
      ],
      "min": [
        0.0
      ],
      "type": "SCALAR"
    },
    {
      "bufferView": 5,
      "byteOffset": 3856,
      "componentType": 5126,
      "count": 241,
      "max": [
        0.49689197540283203,
        0.707100510597229,
        0.7071005702018738,
        0.7071067690849304
      ],
      "min": [
        -0.7071067690849304,
        -0.49809423089027405,
        -0.4980931282043457,
        -0.49689435958862305
      ],
      "type": "VEC4"
    }
  ],
  "animations": [
    {
      "channels": [
        {
          "sampler": 0,
          "target": {
            "node": 4,
            "path": "translation"
          }
        },
        {
          "sampler": 1,
          "target": {
            "node": 4,
            "path": "rotation"
          }
        }
      ],
      "name": "Cube|Cube.001Action",
      "samplers": [
        {
          "input": 8,
          "interpolation": "LINEAR",
          "output": 9
        },
        {
          "input": 10,
          "interpolation": "LINEAR",
          "output": 11
        }
      ]
    },
    {
      "channels": [
        {
          "sampler": 0,
          "target": {
            "node": 4,
            "path": "translation"
          }
        },
        {
          "sampler": 1,
          "target": {
            "node": 4,
            "path": "rotation"
          }
        }
      ],
      "name": "Cube|CubeAction",
      "samplers": [
        {
          "input": 12,
          "interpolation": "LINEAR",
          "output": 13
        },
        {
          "input": 14,
          "interpolation": "LINEAR",
          "output": 15
        }
      ]
    }
  ],
  "asset": {
    "extras": {
      "author": "EMJ (https://sketchfab.com/esmuji)",
      "license": "CC-BY-4.0 (http://creativecommons.org/licenses/by/4.0/)",
      "source": "https://sketchfab.com/3d-models/heart-1845f86204284e80920c1cbdb373c065",
      "title": "Heart"
    },
    "generator": "Sketchfab-14.36.1",
    "version": "2.0"
  },
  "bufferViews": [
    {
      "buffer": 0,
      "byteLength": 270336,
      "name": "floatBufferViews",
      "target": 34963
    },
    {
      "buffer": 0,
      "byteLength": 96176,
      "byteOffset": 270336,
      "byteStride": 8,
      "name": "floatBufferViews",
      "target": 34962
    },
    {
      "buffer": 0,
      "byteLength": 288528,
      "byteOffset": 366512,
      "byteStride": 12,
      "name": "floatBufferViews",
      "target": 34962
    },
    {
      "buffer": 0,
      "byteLength": 3832,
      "byteOffset": 655040,
      "name": "floatBufferViews"
    },
    {
      "buffer": 0,
      "byteLength": 5712,
      "byteOffset": 658872,
      "byteStride": 12,
      "name": "floatBufferViews"
    },
    {
      "buffer": 0,
      "byteLength": 7712,
      "byteOffset": 664584,
      "byteStride": 16,
      "name": "floatBufferViews"
    }
  ],
  "buffers": [
    {
      "byteLength": 672296,
      "uri": "scene.bin"
    }
  ],
  "extensionsUsed": [
    "KHR_materials_clearcoat",
    "KHR_materials_transmission"
  ],
  "materials": [
    {
      "alphaMode": "BLEND",
      "doubleSided": true,
      "extensions": {
        "KHR_materials_clearcoat": {
          "clearcoatFactor": 1.0,
          "clearcoatRoughnessFactor": 0.05333349587351123
        },
        "KHR_materials_transmission": {
          "transmissionFactor": 1.0
        }
      },
      "name": "Material.003",
      "pbrMetallicRoughness": {
        "baseColorFactor": [
          1.0,
          1.0,
          1.0,
          0.25
        ],
        "metallicFactor": 0.0,
        "roughnessFactor": 0.7763932022500211
      }
    },
    {
      "doubleSided": true,
      "extensions": {
        "KHR_materials_clearcoat": {
          "clearcoatFactor": 1.0,
          "clearcoatRoughnessFactor": 0.0
        }
      },
      "name": "Material.002",
      "pbrMetallicRoughness": {
        "baseColorFactor": [
          1.0,
          0.0,
          0.398045601540723,
          1.0
        ],
        "metallicFactor": 0.0,
        "roughnessFactor": 0.8040408205773457
      }
    }
  ],
  "meshes": [
    {
      "name": "Cube_Material.003_0",
      "primitives": [
        {
          "attributes": {
            "NORMAL": 1,
            "POSITION": 0,
            "TEXCOORD_0": 2
          },
          "indices": 3,
          "material": 0,
          "mode": 4
        }
      ]
    },
    {
      "name": "Cube_Material.002_0",
      "primitives": [
        {
          "attributes": {
            "NORMAL": 5,
            "POSITION": 4,
            "TEXCOORD_0": 6
          },
          "indices": 7,
          "material": 1,
          "mode": 4
        }
      ]
    }
  ],
  "nodes": [
    {
      "children": [
        1
      ],
      "matrix": [
        1.0,
        0.0,
        0.0,
        0.0,
        0.0,
        2.220446049250313e-16,
        -1.0,
        0.0,
        0.0,
        1.0,
        2.220446049250313e-16,
        0.0,
        0.0,
        0.0,
        0.0,
        1.0
      ],
      "name": "Sketchfab_model"
    },
    {
      "children": [
        2
      ],
      "matrix": [
        0.009999999776482582,
        0.0,
        0.0,
        0.0,
        0.0,
        0.0,
        0.009999999776482582,
        0.0,
        0.0,
        -0.009999999776482582,
        0.0,
        0.0,
        0.0,
        0.0,
        0.0,
        1.0
      ],
      "name": "9d395961b2d34a4094d435aec7834f6b.fbx"
    },
    {
      "children": [
        3
      ],
      "name": "Object_2"
    },
    {
      "children": [
        4
      ],
      "name": "RootNode"
    },
    {
      "children": [
        5,
        6
      ],
      "name": "Cube",
      "rotation": [
        -0.2562255859375,
        0.6590511798858643,
        0.6590511798858643,
        0.2562256157398224
      ],
      "scale": [
        100.0,
        241.59303283691406,
        84.44049835205078
      ],
      "translation": [
        0.0,
        176.17552185058594,
        0.0
      ]
    },
    {
      "mesh": 0,
      "name": "Cube_Material.003_0"
    },
    {
      "mesh": 1,
      "name": "Cube_Material.002_0"
    }
  ],
  "scene": 0,
  "scenes": [
    {
      "name": "Sketchfab_Scene",
      "nodes": [
        0
      ]
    }
  ]
}
